<svg width="28" height="28" viewBox="0 0 28 28" fill="none" xmlns="http://www.w3.org/2000/svg">
<path d="M12.1047 12.8261C14.2846 12.8261 16.0518 11.0742 16.0518 8.91304C16.0518 6.75193 14.2846 5 12.1047 5C9.92486 5 8.15771 6.75193 8.15771 8.91304C8.15771 11.0742 9.92486 12.8261 12.1047 12.8261Z" fill="white"/>
<path d="M14.105 21.2783C13.6937 20.5724 13.7758 19.7029 14.2652 19.087C13.7758 18.4711 13.6937 17.6024 14.105 16.8957L14.7436 15.8001C15.0949 15.1967 15.7501 14.8218 16.4535 14.8218C16.5498 14.8218 16.6445 14.8288 16.7384 14.8421C16.7645 14.778 16.7976 14.7177 16.83 14.6567C16.4037 14.49 15.9435 14.3914 15.4596 14.3914H8.74967C6.68222 14.3914 5 16.0591 5 18.1087V20.8479C5 21.1719 5.26524 21.4348 5.59205 21.4348H14.1958L14.105 21.2783Z" fill="white"/>
<path d="M22.1326 19.4539C22.1483 19.3326 22.1697 19.2121 22.1697 19.0869C22.1697 18.9609 22.1476 18.8411 22.1326 18.7198L22.8438 18.1861C23.0025 18.0671 23.0467 17.8496 22.9472 17.6782L22.3086 16.5825C22.2091 16.4119 21.9968 16.3407 21.8136 16.4174L20.995 16.7594C20.7953 16.6084 20.583 16.4753 20.3485 16.3783L20.2396 15.5166C20.2143 15.321 20.047 15.1738 19.848 15.1738H18.5716C18.3726 15.1738 18.2045 15.321 18.18 15.5166L18.0711 16.3783C17.8366 16.4753 17.6235 16.6091 17.4246 16.7594L16.6059 16.4174C16.4228 16.3407 16.2105 16.4111 16.111 16.5825L15.4724 17.6782C15.3729 17.8488 15.4171 18.0664 15.5758 18.1861L16.287 18.7198C16.2712 18.8411 16.2499 18.9617 16.2499 19.0869C16.2499 19.2129 16.272 19.3326 16.287 19.4539L15.5758 19.9877C15.4171 20.1066 15.3729 20.3242 15.4724 20.4956L16.111 21.592C16.2105 21.7626 16.4228 21.8338 16.6059 21.7571L17.4246 21.4144C17.6243 21.5654 17.8366 21.6984 18.0711 21.7955L18.18 22.6571C18.2045 22.8528 18.3718 22.9999 18.5708 22.9999H19.8472C20.0462 22.9999 20.2143 22.8528 20.2388 22.6571L20.3477 21.7955C20.5822 21.6984 20.7953 21.5646 20.9942 21.4144L21.8129 21.7564C21.996 21.833 22.2083 21.7626 22.3078 21.5912L22.9464 20.4948C23.0459 20.3242 23.0017 20.1066 22.843 19.9869L22.1326 19.4539ZM19.2094 20.6521C18.3371 20.6521 17.6306 19.9517 17.6306 19.0869C17.6306 18.2221 18.3371 17.5217 19.2094 17.5217C20.0817 17.5217 20.7882 18.2221 20.7882 19.0869C20.7882 19.9517 20.0817 20.6521 19.2094 20.6521Z" fill="white"/>
</svg>
