<svg width="28" height="28" viewBox="0 0 28 28" fill="none" xmlns="http://www.w3.org/2000/svg">
<path d="M11.7288 20.9989C12.5817 20.9989 13.273 20.3497 13.273 19.5489C13.273 18.7481 12.5817 18.0989 11.7288 18.0989C10.8759 18.0989 10.1846 18.7481 10.1846 19.5489C10.1846 20.3497 10.8759 20.9989 11.7288 20.9989Z" fill="white" fill-opacity="0.9"/>
<path d="M17.7913 18.0989C16.9385 18.0989 16.2471 18.7481 16.2471 19.5489C16.2471 20.3497 16.9385 20.9989 17.7913 20.9989C18.6442 20.9989 19.3356 20.3497 19.3356 19.5489C19.3356 18.7481 18.6442 18.0989 17.7913 18.0989Z" fill="white" fill-opacity="0.9"/>
<path d="M21.8641 16.1086H11.0324L10.8204 14.9542H19.7232C19.9851 14.9549 20.2207 14.8048 20.3167 14.576L22.4364 9.56035C22.5652 9.25356 22.4047 8.9068 22.078 8.78591C22.0031 8.75819 21.9233 8.74408 21.8429 8.74431H9.7182L9.20948 5.99764C9.15723 5.70722 8.88722 5.49594 8.57357 5.50006H6.13591C5.78471 5.50006 5.5 5.76739 5.5 6.09716C5.5 6.42693 5.78471 6.69426 6.13591 6.69426H8.04364L9.86658 16.8052C9.91883 17.0956 10.1888 17.3069 10.5025 17.3028H21.8641C22.2153 17.3028 22.5 17.0354 22.5 16.7057C22.5 16.3759 22.2153 16.1086 21.8641 16.1086Z" fill="white" fill-opacity="0.9"/>
</svg>
