<svg width="28" height="28" viewBox="0 0 28 28" fill="none" xmlns="http://www.w3.org/2000/svg">
<path d="M17.0804 9.44034C16.7718 9.10904 16.2713 9.10898 15.9627 9.44028C15.6541 9.77165 15.654 10.3088 15.9627 10.6402L18.3017 13.1515H8.61827C8.1818 13.1515 7.82794 13.5314 7.82794 14C7.82794 14.4686 8.1818 14.8485 8.61827 14.8485H18.3016L15.9627 17.3595C15.654 17.6909 15.654 18.2281 15.9627 18.5595C16.117 18.7251 16.3193 18.808 16.5215 18.808C16.7238 18.808 16.9261 18.7251 17.0804 18.5595L20.7684 14.6C21.0771 14.2687 21.0771 13.7314 20.7684 13.4L17.0804 9.44034Z" fill="white" fill-opacity="0.9"/>
<path d="M12.3065 23.3333C12.743 23.3333 13.0968 22.9535 13.0968 22.4849C13.0968 22.0163 12.743 21.6364 12.3065 21.6364H6.24731V6.36366H12.3065C12.743 6.36366 13.0968 5.98376 13.0968 5.51517C13.0968 5.04658 12.743 4.66669 12.3065 4.66669H5.45698C5.02051 4.66669 4.66666 5.04658 4.66666 5.51517V22.4849C4.66666 22.9535 5.02051 23.3333 5.45698 23.3333H12.3065Z" fill="white" fill-opacity="0.9"/>
</svg>
