<svg width="16" height="18" viewBox="0 0 16 18" fill="none" xmlns="http://www.w3.org/2000/svg">
<g clip-path="url(#clip0_593_948)">
<path fill-rule="evenodd" clip-rule="evenodd" d="M7.99999 18C9.09999 18 9.99999 17.19 9.99999 16.2H5.99999C5.99999 17.19 6.88999 18 7.99999 18ZM14 12.6V8.10001C14 5.33701 12.36 3.02401 9.49999 2.41201V1.80001C9.49999 1.05301 8.82999 0.450012 7.99999 0.450012C7.16999 0.450012 6.49999 1.05301 6.49999 1.80001V2.41201C3.62999 3.02401 1.99999 5.32801 1.99999 8.10001V12.6L0.70999 13.761C0.0799904 14.328 0.51999 15.3 1.40999 15.3H14.58C15.47 15.3 15.92 14.328 15.29 13.761L14 12.6Z" fill="white" fill-opacity="0.9"/>
</g>
<defs>
<clipPath id="clip0_593_948">
<rect width="16" height="18" fill="white"/>
</clipPath>
</defs>
</svg>
