<svg width="24" height="24" viewBox="0 0 24 24" fill="none" xmlns="http://www.w3.org/2000/svg">
<path d="M18.2056 6.09578C18.2113 5.5736 18.0086 5.0707 17.6422 4.69859C17.2696 4.33014 16.7689 4.12016 16.245 4.11266C15.7301 4.11042 15.2355 4.3131 14.8704 4.67603L17.6422 7.47041C18.014 7.11119 18.2183 6.61261 18.2056 6.09578Z" fill="white"/>
<path d="M17.0112 8.10134L14.2394 5.32954L7.8169 11.752L10.5887 14.5238L17.0112 8.10134Z" fill="white"/>
<path d="M7.45638 12.6535L6.82538 15.5155L9.68735 14.8845L7.45638 12.6535Z" fill="white"/>
<path d="M20.5493 18.9859H5.4507C5.20178 18.9859 5 19.1877 5 19.4366C5 19.6856 5.20178 19.8873 5.4507 19.8873H20.5493C20.7982 19.8873 21 19.6856 21 19.4366C21 19.1877 20.7982 18.9859 20.5493 18.9859Z" fill="white"/>
</svg>
