<svg width="18" height="18" viewBox="0 0 18 18" fill="none" xmlns="http://www.w3.org/2000/svg">
<path d="M3.13748 8.66826C3.13762 8.66812 3.13774 8.66795 3.1379 8.66781L5.58722 6.23031C5.77071 6.04771 6.0675 6.04839 6.25015 6.2319C6.43277 6.4154 6.43207 6.71218 6.24858 6.89481L4.60411 8.53131H14.5312C14.7901 8.53131 15 8.74117 15 9.00006C15 9.25895 14.7901 9.46881 14.5312 9.46881H4.60413L6.24855 11.1053C6.43205 11.2879 6.43275 11.5847 6.25012 11.7682C6.06748 11.9518 5.77066 11.9524 5.58719 11.7698L3.13788 9.33231C3.13774 9.33217 3.13762 9.33201 3.13746 9.33187C2.95387 9.14863 2.95446 8.85088 3.13748 8.66826Z" fill="#212121"/>
</svg>
