<svg width="24" height="24" viewBox="0 0 24 24" fill="none" xmlns="http://www.w3.org/2000/svg">
<path d="M18 4H6C4.89734 4 4 4.89734 4 6V18C4 19.1027 4.89734 20 6 20H18C19.1027 20 20 19.1027 20 18V6C20 4.89734 19.1027 4 18 4ZM18.6667 18C18.6667 18.368 18.3673 18.6667 18 18.6667H6C5.63266 18.6667 5.33334 18.368 5.33334 18V6C5.33334 5.63266 5.63269 5.33334 6 5.33334H18C18.3673 5.33334 18.6667 5.63269 18.6667 6V18Z" fill="white"/>
<path d="M15 8H9.66666C9.29866 8 9 8.29866 9 8.66666C9 9.03466 9.29866 9.33331 9.66666 9.33331H15C15.368 9.33331 15.6667 9.03466 15.6667 8.66666C15.6667 8.29866 15.368 8 15 8Z" fill="white"/>
<path d="M15 11H9.66666C9.29866 11 9 11.2987 9 11.6667C9 12.0347 9.29866 12.3333 9.66666 12.3333H15C15.368 12.3333 15.6667 12.0347 15.6667 11.6667C15.6667 11.2987 15.368 11 15 11Z" fill="white"/>
<path d="M15 14H9.66666C9.29866 14 9 14.298 9 14.6667C9 15.0353 9.29866 15.3333 9.66666 15.3333H15C15.368 15.3333 15.6667 15.0353 15.6667 14.6667C15.6667 14.298 15.368 14 15 14Z" fill="white"/>
</svg>
