<svg width="28" height="28" viewBox="0 0 28 28" fill="none" xmlns="http://www.w3.org/2000/svg">
<path d="M21.9999 9.33333H20.6666V6.66667C20.6666 2.93333 17.7333 0 13.9999 0C10.2666 0 7.33325 2.93333 7.33325 6.66667V9.33333H5.99992C4.53325 9.33333 3.33325 10.5333 3.33325 12V25.3333C3.33325 26.8 4.53325 28 5.99992 28H21.9999C23.4666 28 24.6666 26.8 24.6666 25.3333V12C24.6666 10.5333 23.4666 9.33333 21.9999 9.33333ZM13.9999 21.3333C12.5333 21.3333 11.3333 20.1333 11.3333 18.6667C11.3333 17.2 12.5333 16 13.9999 16C15.4666 16 16.6666 17.2 16.6666 18.6667C16.6666 20.1333 15.4666 21.3333 13.9999 21.3333ZM18.1333 9.33333H9.86658V6.66667C9.86658 4.4 11.7333 2.53333 13.9999 2.53333C16.2666 2.53333 18.1333 4.4 18.1333 6.66667V9.33333Z" fill="#8A8A8A"/>
</svg>
