<svg width="24" height="24" viewBox="0 0 24 24" fill="none" xmlns="http://www.w3.org/2000/svg">
<path d="M16.9536 8.24095H7.04647C6.05575 8.24095 5.26318 9.01204 5.26318 9.97589V18.265C5.26318 19.2289 6.05575 20 7.04647 20H16.9536C17.9443 20 18.7369 19.2289 18.7369 18.265V9.97589C18.7369 9.01204 17.9443 8.24095 16.9536 8.24095ZM14.8335 12.9253C14.8335 13.253 14.5759 13.5036 14.239 13.5036H9.76102C9.42417 13.5036 9.16659 13.253 9.16659 12.9253V11.4602C9.16659 11.1325 9.42417 10.8819 9.76102 10.8819C10.0979 10.8819 10.3554 11.1325 10.3554 11.4602V12.347H13.6446V11.4602C13.6446 11.1325 13.9022 10.8819 14.239 10.8819C14.5759 10.8819 14.8335 11.1325 14.8335 11.4602V12.9253Z" fill="white"/>
<path d="M16.9536 6.12048H7.04645C6.70961 6.12048 6.45203 6.37109 6.45203 6.6988C6.45203 7.02651 6.70961 7.27711 7.04645 7.27711H16.9536C17.2904 7.27711 17.548 7.02651 17.548 6.6988C17.548 6.37109 17.2904 6.12048 16.9536 6.12048Z" fill="white"/>
<path d="M15.9629 4H8.03718C7.70033 4 7.44275 4.2506 7.44275 4.57831C7.44275 4.90602 7.70033 5.15663 8.03718 5.15663H15.9629C16.2997 5.15663 16.5573 4.90602 16.5573 4.57831C16.5573 4.2506 16.2997 4 15.9629 4Z" fill="white"/>
</svg>
