<svg width="12" height="12" viewBox="0 0 12 12" fill="none" xmlns="http://www.w3.org/2000/svg">
<g clip-path="url(#clip0_606_197)">
<path d="M10.4744 7.02586C10.3369 5.2362 9.50365 4.11469 8.76855 3.12502C8.08788 2.2088 7.5 1.4176 7.5 0.250459C7.5 0.156709 7.4475 0.0710212 7.36425 0.0280603C7.28074 -0.0151585 7.18041 -0.00808035 7.10449 0.0470915C6.00049 0.837076 5.07935 2.16854 4.75758 3.43894C4.5342 4.3234 4.50464 5.31772 4.50049 5.97441C3.48096 5.75665 3.25001 4.23162 3.24757 4.215C3.23609 4.1359 3.18776 4.06707 3.11745 4.02947C3.04641 3.99237 2.9629 3.98968 2.89088 4.02532C2.83741 4.0512 1.57861 4.69081 1.50537 7.24458C1.50023 7.32954 1.5 7.41476 1.5 7.49996C1.5 9.98098 3.51879 11.9997 6 11.9997C6.00342 11.9999 6.00708 12.0004 6.01001 11.9997C6.01099 11.9997 6.01195 11.9997 6.01317 11.9997C8.48829 11.9925 10.5 9.9766 10.5 7.49996C10.5 7.3752 10.4744 7.02586 10.4744 7.02586ZM6 11.4997C5.17284 11.4997 4.5 10.7829 4.5 9.9019C4.5 9.87188 4.49977 9.8416 4.50195 9.8045C4.51195 9.43294 4.58252 9.1793 4.65991 9.0106C4.80495 9.3221 5.06421 9.60846 5.48536 9.60846C5.62355 9.60846 5.73537 9.49664 5.73537 9.35848C5.73537 9.00256 5.7427 8.59193 5.83132 8.22134C5.91019 7.89275 6.09865 7.54315 6.33743 7.26291C6.44362 7.62666 6.65067 7.92106 6.85282 8.2084C7.14213 8.6195 7.4412 9.04453 7.4937 9.76934C7.49686 9.8123 7.50005 9.85552 7.50005 9.9019C7.5 10.7829 6.82716 11.4997 6 11.4997Z" fill="white"/>
</g>
<defs>
<clipPath id="clip0_606_197">
<rect width="12" height="12" fill="white"/>
</clipPath>
</defs>
</svg>
