<svg width="32" height="32" viewBox="0 0 32 32" fill="none" xmlns="http://www.w3.org/2000/svg">
<path d="M15.0461 8C11.161 8 8 11.161 8 15.0461C8 18.9314 11.161 22.0922 15.0461 22.0922C18.9315 22.0922 22.0922 18.9314 22.0922 15.0461C22.0922 11.161 18.9315 8 15.0461 8ZM15.0461 20.7914C11.8782 20.7914 9.30082 18.214 9.30082 15.0461C9.30082 11.8782 11.8782 9.30082 15.0461 9.30082C18.2141 9.30082 20.7914 11.8782 20.7914 15.0461C20.7914 18.214 18.2141 20.7914 15.0461 20.7914Z" fill="#2F2F2F"/>
<path d="M23.8094 22.8897L20.0804 19.1607C19.8263 18.9066 19.4148 18.9066 19.1607 19.1607C18.9066 19.4146 18.9066 19.8265 19.1607 20.0804L22.8897 23.8094C23.0168 23.9364 23.1831 24 23.3496 24C23.5159 24 23.6824 23.9364 23.8094 23.8094C24.0635 23.5555 24.0635 23.1436 23.8094 22.8897Z" fill="#2F2F2F"/>
</svg>
