<svg width="24" height="24" viewBox="0 0 24 24" fill="none" xmlns="http://www.w3.org/2000/svg">
<path d="M13.6775 13.7968L18.7116 8.63434C19.103 8.23284 19.095 7.59015 18.6935 7.19857C18.292 6.80711 17.6492 6.81512 17.2578 7.21662L12.2417 12.3609C10.8238 13.8148 11.2204 13.4183 10.8238 13.8148L10.0296 14.6293L7.16102 11.7607C6.76448 11.3642 6.12167 11.3642 5.72514 11.7607C5.3286 12.1573 5.3286 12.8001 5.72514 13.1966L9.32082 16.7923C9.51125 16.9827 9.76959 17.0897 10.0388 17.0897H10.0452C10.3167 17.088 10.5762 16.9775 10.7657 16.7831L12.2599 15.2508L13.6775 13.7968Z" fill="white"/>
</svg>
