<svg width="12" height="12" viewBox="0 0 12 12" fill="none" xmlns="http://www.w3.org/2000/svg">
<g clip-path="url(#clip0_606_205)">
<path d="M10.5669 2.08841C10.0234 1.49889 9.27758 1.17421 8.46672 1.17421C7.86062 1.17421 7.30555 1.36583 6.81689 1.7437C6.57031 1.93444 6.34689 2.1678 6.1499 2.44017C5.953 2.16788 5.72949 1.93444 5.48284 1.7437C4.99426 1.36583 4.43918 1.17421 3.83308 1.17421C3.02222 1.17421 2.27633 1.49889 1.73279 2.08841C1.19574 2.67104 0.899902 3.467 0.899902 4.32977C0.899902 5.21777 1.23083 6.03064 1.94131 6.88796C2.5769 7.65484 3.49038 8.43333 4.54821 9.3348C4.90942 9.64265 5.31886 9.99161 5.74399 10.3633C5.8563 10.4617 6.00042 10.5158 6.1499 10.5158C6.2993 10.5158 6.4435 10.4617 6.55565 10.3635C6.98079 9.99169 7.39046 9.64257 7.75183 9.33456C8.80951 8.43325 9.72299 7.65484 10.3586 6.88788C11.0691 6.03064 11.3999 5.21777 11.3999 4.32969C11.3999 3.467 11.1041 2.67104 10.5669 2.08841Z" fill="white"/>
</g>
<defs>
<clipPath id="clip0_606_205">
<rect width="10.5" height="10.5" fill="white" transform="translate(0.899902 0.599991)"/>
</clipPath>
</defs>
</svg>
