<svg width="12" height="12" viewBox="0 0 12 12" fill="none" xmlns="http://www.w3.org/2000/svg">
<g clip-path="url(#clip0_606_180)">
<path d="M3.99537 5.74129L7.46288 9.2088C7.47886 8.90111 7.49267 8.22208 7.376 7.40847C7.16574 5.94212 6.62496 4.73737 5.8121 3.92455C4.99927 3.11172 3.79453 2.57092 2.32819 2.36066C1.23713 2.20419 0.387542 2.28236 0.351917 2.2858C0.177378 2.30249 0.0392144 2.44066 0.0225269 2.61519C0.019105 2.65082 -0.0590591 3.50038 0.0973862 4.59147C0.307644 6.05781 0.848417 7.26257 1.66128 8.07538C2.47411 8.88822 3.67885 9.42901 5.14519 9.63927C5.68524 9.71671 6.16596 9.73666 6.51823 9.73666C6.69664 9.73666 6.84202 9.73152 6.94547 9.72613L3.47799 6.25867C3.33511 6.11582 3.33511 5.88416 3.47799 5.74127C3.62084 5.59844 3.8525 5.59844 3.99537 5.74129Z" fill="white"/>
<path d="M11.9838 4.82353C11.9671 4.64899 11.8289 4.51083 11.6544 4.49414C11.5566 4.48481 9.24387 4.28076 7.89713 5.62753C7.8447 5.67996 7.79469 5.73394 7.74683 5.78913C7.90449 6.2606 8.0233 6.76737 8.10031 7.30462C8.12497 7.47665 8.14416 7.64271 8.15909 7.80138L9.11504 6.84544C9.25789 6.70258 9.48955 6.70258 9.63245 6.84544C9.77534 6.98829 9.77532 7.21994 9.63245 7.36284L8.2055 8.78979C8.20515 9.16272 8.18391 9.40586 8.17927 9.4544C8.17107 9.54026 8.15281 9.62313 8.126 9.70209C8.93869 9.62695 10.0606 9.37059 10.8504 8.58077C12.1971 7.23405 11.9931 4.92136 11.9838 4.82353Z" fill="white"/>
</g>
<defs>
<clipPath id="clip0_606_180">
<rect width="12" height="12" fill="white"/>
</clipPath>
</defs>
</svg>
