<svg width="25" height="24" viewBox="0 0 25 24" fill="none" xmlns="http://www.w3.org/2000/svg">
<path d="M13.5417 11.451L13.5416 6.78405C13.5417 6.48041 13.2963 6.23499 12.9926 6.23506C12.6891 6.23505 12.4436 6.48047 12.4436 6.78404L12.4437 11.4511L7.77672 11.451C7.47307 11.451 7.22773 11.6964 7.22773 11.9999C7.22766 12.3036 7.47308 12.549 7.77673 12.5489L12.4437 12.5491L12.4438 17.216C12.4438 17.5197 12.6892 17.7651 12.9928 17.765C13.1442 17.7651 13.2817 17.7037 13.3811 17.6043C13.4804 17.5049 13.5418 17.3675 13.5418 17.216L13.5417 12.5491L18.2087 12.5491C18.3602 12.5491 18.4976 12.4878 18.597 12.3884C18.6964 12.289 18.7577 12.1516 18.7577 12.0001C18.7578 11.6965 18.5124 11.4511 18.2087 11.4511L13.5417 11.451Z" fill="#1454F2"/>
</svg>
