<svg width="24" height="24" viewBox="0 0 24 24" fill="none" xmlns="http://www.w3.org/2000/svg">
<path d="M15.8889 5.6V6.4H14.3333V5.6H9.66664V6.4H8.11108V5.6C8.11108 5.17566 8.27497 4.76869 8.5667 4.46863C8.85842 4.16857 9.25408 4 9.66664 4H14.3333C14.7459 4 15.1415 4.16857 15.4333 4.46863C15.725 4.76869 15.8889 5.17566 15.8889 5.6Z" fill="#F97066"/>
<path d="M18.2222 7.19998H5.77778C5.5715 7.19998 5.37367 7.28427 5.22781 7.4343C5.08194 7.58433 5 7.78781 5 7.99998C5 8.21216 5.08194 8.41564 5.22781 8.56567C5.37367 8.7157 5.5715 8.79998 5.77778 8.79998H6.55556V18.4C6.55556 18.8243 6.71944 19.2313 7.01117 19.5314C7.30289 19.8314 7.69855 20 8.11111 20H15.8889C16.3014 20 16.6971 19.8314 16.9888 19.5314C17.2806 19.2313 17.4444 18.8243 17.4444 18.4V8.79998H18.2222C18.4285 8.79998 18.6263 8.7157 18.7722 8.56567C18.9181 8.41564 19 8.21216 19 7.99998C19 7.78781 18.9181 7.58433 18.7722 7.4343C18.6263 7.28427 18.4285 7.19998 18.2222 7.19998ZM11.2222 16C11.2222 16.2122 11.1403 16.4157 10.9944 16.5657C10.8486 16.7157 10.6507 16.8 10.4444 16.8C10.2382 16.8 10.0403 16.7157 9.89447 16.5657C9.74861 16.4157 9.66667 16.2122 9.66667 16V11.2C9.66667 10.9878 9.74861 10.7843 9.89447 10.6343C10.0403 10.4843 10.2382 10.4 10.4444 10.4C10.6507 10.4 10.8486 10.4843 10.9944 10.6343C11.1403 10.7843 11.2222 10.9878 11.2222 11.2V16ZM14.3333 16C14.3333 16.2122 14.2514 16.4157 14.1055 16.5657C13.9597 16.7157 13.7618 16.8 13.5556 16.8C13.3493 16.8 13.1514 16.7157 13.0056 16.5657C12.8597 16.4157 12.7778 16.2122 12.7778 16V11.2C12.7778 10.9878 12.8597 10.7843 13.0056 10.6343C13.1514 10.4843 13.3493 10.4 13.5556 10.4C13.7618 10.4 13.9597 10.4843 14.1055 10.6343C14.2514 10.7843 14.3333 10.9878 14.3333 11.2V16Z" fill="#F97066"/>
</svg>
