<svg width="24" height="24" viewBox="0 0 24 24" fill="none" xmlns="http://www.w3.org/2000/svg">
<path d="M16.6666 11.9995C16.298 11.9995 16 12.2982 16 12.6661V17.9995C16 18.3668 15.7013 18.6661 15.3334 18.6661H6C5.63196 18.6661 5.33337 18.3668 5.33337 17.9995V8.66611C5.33337 8.2988 5.63196 7.99948 6 7.99948H11.3334C11.702 7.99948 12 7.70078 12 7.33286C12 6.96481 11.702 6.66611 11.3334 6.66611H6C4.89734 6.66611 4 7.56345 4 8.66611V17.9995C4 19.1021 4.89734 19.9995 6 19.9995H15.3334C16.436 19.9995 17.3334 19.1021 17.3334 17.9995V12.6661C17.3334 12.2975 17.0353 11.9995 16.6666 11.9995Z" fill="#1454F2"/>
<path d="M10.2505 11.3922C10.2039 11.4388 10.1725 11.4981 10.1592 11.5621L9.68789 13.9195C9.66591 14.0288 9.70058 14.1415 9.77919 14.2208C9.84255 14.2842 9.92788 14.3181 10.0153 14.3181C10.0365 14.3181 10.0586 14.3161 10.0806 14.3115L12.4373 13.8402C12.5026 13.8268 12.5619 13.7955 12.6079 13.7488L17.8826 8.47409L15.5259 6.11752L10.2505 11.3922Z" fill="#1454F2"/>
<path d="M19.512 4.48752C18.8621 3.83749 17.8047 3.83749 17.1553 4.48752L16.2327 5.41013L18.5894 7.76682L19.512 6.84409C19.8267 6.53012 20 6.11142 20 5.66611C20 5.22079 19.8267 4.80209 19.512 4.48752Z" fill="#1454F2"/>
</svg>
