<svg width="32" height="32" viewBox="0 0 32 32" fill="none" xmlns="http://www.w3.org/2000/svg">
<path d="M28.7633 5.48378C28.6156 5.37298 28.4264 5.33664 28.2452 5.38738L15.7586 8.95457C15.6095 8.66878 15.4182 8.45217 15.2557 8.27324C15.2463 8.26299 15.2402 8.25446 15.2311 8.24443L28.5591 4.75375C28.8188 4.68506 28.9999 4.44962 28.9999 4.18072L28.9988 3.59097C28.9988 3.40572 28.9111 3.23144 28.7633 3.12009C28.6156 3.00874 28.4264 2.97351 28.2452 3.0237L3.42843 10.1135C3.11799 10.2029 2.93562 10.5255 3.02104 10.8377C3.09262 11.1003 3.33032 11.2728 3.59119 11.2728C3.64082 11.2728 3.69046 11.2664 3.7412 11.2537L7.70065 10.2167C7.64564 10.4741 7.50156 10.6386 7.29011 10.8711C7.13483 11.0422 6.95135 11.2453 6.80522 11.5124L3.42843 12.477C3.11799 12.5665 2.93562 12.8891 3.02104 13.2013C3.09262 13.4638 3.33032 13.6363 3.59119 13.6363C3.64082 13.6363 3.69046 13.63 3.7412 13.6173L6.58313 12.873C6.67237 13.5504 7.01683 13.9656 7.29011 14.2665C7.56249 14.5671 7.72752 14.7483 7.72752 15.1707C7.72752 15.5937 7.56249 15.7749 7.29011 16.0755C7.05522 16.3341 6.75547 16.6648 6.6193 17.1829H5.95476C5.62814 17.1829 5.36384 17.4472 5.36384 17.7738V18.3648C5.36384 22.6086 7.86834 26.2694 11.4718 27.9747C11.3515 28.0827 11.2729 28.2355 11.2729 28.4101C11.2729 28.7368 11.5372 29.0011 11.8638 29.0011H20.1364C20.463 29.0011 20.7273 28.7368 20.7273 28.4101C20.7273 28.2356 20.6486 28.0828 20.5284 27.9747C24.1319 26.2695 26.6364 22.6086 26.6364 18.3648V17.7738C26.6364 17.4472 26.3721 17.1829 26.0454 17.1829H14.9997C15.0692 17.0827 15.1516 16.9845 15.2557 16.8696C15.5696 16.5239 16.0001 16.0502 16.0001 15.1707C16.0001 14.2919 15.5696 13.8181 15.2557 13.4725C14.9833 13.1718 14.8183 12.9906 14.8183 12.5682C14.8183 12.147 14.9833 11.9658 15.2557 11.6663C15.5093 11.3872 15.8273 11.0126 15.9446 10.4212L28.5591 7.11738C28.8188 7.04869 28.9999 6.81325 28.9999 6.54435L28.9988 5.9546C28.9988 5.7694 28.9111 5.59512 28.7633 5.48378ZM13.9923 8.56889C14.119 8.76234 14.2555 8.93025 14.3809 9.06841C14.4545 9.1494 14.5186 9.22186 14.5754 9.2926L13.5879 9.57468C13.5302 9.24081 13.4158 8.97374 13.2721 8.75752L13.9923 8.56889ZM12.0305 9.0827C12.2781 9.35492 12.4286 9.53967 12.4472 9.90059L11.239 10.2457C11.25 10.1533 11.2729 10.073 11.2729 9.96972C11.2729 9.71035 11.2288 9.49912 11.1705 9.30789L12.0305 9.0827ZM8.89945 9.90275L10.0296 9.6067C10.0669 9.7093 10.091 9.82275 10.091 9.96972C10.091 10.274 10.0024 10.453 9.85156 10.6421L8.66966 10.9797C8.80727 10.7143 8.9092 10.3906 8.9092 9.96978C8.90925 9.94546 8.90011 9.92662 8.89945 9.90275ZM8.16488 13.4725C7.89371 13.1731 7.7294 12.9915 7.72796 12.5732L8.94792 12.2537C8.93379 12.3575 8.90925 12.4506 8.90925 12.5682C8.90925 13.4471 9.33974 13.9209 9.65368 14.2665C9.92606 14.5671 10.0911 14.7483 10.0911 15.1707C10.0911 15.5937 9.92606 15.7749 9.65368 16.0755C9.41879 16.3341 9.11904 16.6648 8.98287 17.1829H7.90889C7.97841 17.0827 8.06079 16.9845 8.16488 16.8696C8.47882 16.5239 8.90931 16.0502 8.90931 15.1707C8.90925 14.2919 8.47882 13.8182 8.16488 13.4725ZM11.738 24.7804C11.6214 24.9293 11.4483 25.0072 11.2729 25.0072C11.1447 25.0072 11.0167 24.9662 10.9082 24.8814C9.42976 23.7233 8.37838 22.0867 7.95022 20.2736C7.87521 19.9557 8.07143 19.6377 8.3888 19.5627C8.70733 19.4866 9.02586 19.6833 9.09971 20.0013C9.46788 21.5548 10.3681 22.9576 11.6376 23.9512C11.8938 24.1526 11.9388 24.5236 11.738 24.7804ZM12.0173 16.0756C11.7824 16.3342 11.4827 16.6649 11.3465 17.183H10.2725C10.342 17.0828 10.4244 16.9845 10.5285 16.8696C10.8424 16.524 11.2729 16.0502 11.2729 15.1708C11.2729 14.2919 10.8424 13.8182 10.5285 13.4725C10.2561 13.1719 10.0911 12.9907 10.0911 12.5683C10.0911 12.2611 10.1807 12.0816 10.3339 11.8907L11.5018 11.5848C11.3707 11.846 11.2729 12.16 11.2729 12.5683C11.2729 13.4472 11.7034 13.9209 12.0173 14.2665C12.2897 14.5672 12.4547 14.7484 12.4547 15.1708C12.4547 15.5937 12.2896 15.7749 12.0173 16.0756ZM14.3809 16.0756C14.146 16.3342 13.8462 16.6649 13.7101 17.183H12.6361C12.7056 17.0828 12.788 16.9845 12.8921 16.8696C13.206 16.524 13.6365 16.0502 13.6365 15.1708C13.6365 14.2919 13.206 13.8182 12.8921 13.4725C12.6197 13.1719 12.4547 12.9907 12.4547 12.5683C12.4547 12.147 12.6197 11.9658 12.8921 11.6664C13.0294 11.5152 13.1854 11.3314 13.3215 11.1083L14.4271 10.8187C14.4108 10.8367 14.398 10.8523 14.3808 10.8712C14.0669 11.2169 13.6364 11.69 13.6364 12.5683C13.6364 13.4472 14.0669 13.9209 14.3808 14.2665C14.6532 14.5672 14.8182 14.7484 14.8182 15.1708C14.8183 15.5937 14.6533 15.7749 14.3809 16.0756Z" fill="#11162A"/>
</svg>
