<svg width="32" height="32" viewBox="0 0 32 32" fill="none" xmlns="http://www.w3.org/2000/svg">
<path d="M8.41664 8.41663C7.327 8.41663 5.5 8.56827 5.5 9.58327C5.5 10.5983 7.327 10.75 8.41664 10.75C9.50629 10.75 11.3333 10.5983 11.3333 9.58333C11.3333 8.56833 9.50634 8.41663 8.41664 8.41663Z" fill="#11162A"/>
<path d="M23.5834 6.08337C22.4937 6.08337 20.6667 6.23502 20.6667 7.25002C20.6667 8.26502 22.4937 8.41667 23.5834 8.41667C24.673 8.41667 26.5 8.26502 26.5 7.25002C26.5 6.23502 24.673 6.08337 23.5834 6.08337Z" fill="#11162A"/>
<path d="M8.41664 6.08337C4.81864 6.08337 2 7.62102 2 9.58337V16.5834C2 18.5468 4.81864 20.0833 8.41664 20.0833C12.0146 20.0833 14.8333 18.5468 14.8333 16.5834V9.58337C14.8333 7.62102 12.0146 6.08337 8.41664 6.08337ZM8.41664 11.9167C5.32264 11.9167 3.16665 10.687 3.16665 9.58331C3.16665 8.47961 5.32264 7.25002 8.41664 7.25002C11.5106 7.25002 13.6666 8.47967 13.6666 9.58337C13.6666 10.6871 11.5106 11.9167 8.41664 11.9167Z" fill="#11162A"/>
<path d="M23.5834 3.75C19.9854 3.75 17.1667 5.28765 17.1667 7.24999V14.25C17.1667 16.2123 19.9854 17.75 23.5834 17.75C27.1814 17.75 30 16.2123 30 14.25V7.24999C30 5.28765 27.1814 3.75 23.5834 3.75ZM23.5834 9.58334C20.4894 9.58334 18.3334 8.35369 18.3334 7.24999C18.3334 6.14629 20.4894 4.91665 23.5834 4.91665C26.6774 4.91665 28.8334 6.14629 28.8334 7.24999C28.8334 8.35369 26.6774 9.58334 23.5834 9.58334Z" fill="#11162A"/>
<path d="M29.4166 24.75H13.8486L27.2757 20.0506C27.5802 19.9445 27.7401 19.612 27.6339 19.3075C27.5277 19.003 27.1964 18.8408 26.8907 18.9493L10.3183 24.75H2.58335C2.26135 24.75 2 25.0113 2 25.3333C2 25.6553 2.26135 25.9167 2.58335 25.9167H6.98519L3.5575 27.116C3.253 27.2221 3.09315 27.5546 3.19935 27.8591C3.28335 28.0995 3.5085 28.25 3.75 28.25C3.81414 28.25 3.87835 28.2395 3.9425 28.2173L10.5143 25.9167H29.4167C29.7387 25.9167 30 25.6553 30 25.3333C29.9999 25.0113 29.7386 24.75 29.4166 24.75Z" fill="#11162A"/>
</svg>
