<svg width="32" height="32" viewBox="0 0 32 32" fill="none" xmlns="http://www.w3.org/2000/svg">
<path d="M4.07666 15.921C4.37184 20.1553 7.12926 23.8915 11.2186 25.4882V27.0405C11.2186 27.4497 11.5411 27.7818 11.9385 27.7818H19.1381C19.5355 27.7818 19.858 27.4497 19.858 27.0405V25.4882C23.9473 23.8915 26.7033 20.1553 26.9999 15.921H4.07666Z" fill="#11162A"/>
<path d="M25.1598 4.61772C25.095 4.35678 24.8949 4.15663 24.6443 4.08843C24.388 4.02171 24.1217 4.10029 23.9402 4.29303C23.9273 4.30489 22.7494 5.53248 18.8171 7.08476C17.429 7.63184 16.4196 8.66966 15.9732 10.0055C15.6536 10.9662 15.5067 12.4755 16.4239 14.4385H16.9106C16.9567 14.3762 17.0057 14.3154 17.0719 14.2694C17.0906 14.2561 18.9222 12.9603 20.0726 10.4176C20.2411 10.047 20.6688 9.88984 21.0302 10.0589C21.3902 10.2323 21.5457 10.6741 21.3772 11.0448C20.6832 12.5778 19.7875 13.7001 19.0719 14.4385H23.1699C23.7343 13.964 24.2887 13.3621 24.8013 12.5585C24.8157 12.5378 24.8286 12.5155 24.8387 12.4918C26.3463 9.49102 25.2088 4.81491 25.1598 4.61772Z" fill="#11162A"/>
<path d="M13.9171 11.5904C13.5916 10.6119 12.8558 9.8543 11.8465 9.45548C9.23736 8.42656 8.44542 7.61706 8.44542 7.61706C8.26543 7.41691 7.99761 7.33388 7.73986 7.4006C7.48356 7.46732 7.28341 7.67191 7.21862 7.93582C7.18406 8.0737 6.38923 11.3443 7.45476 13.4689C7.46628 13.4911 7.47924 13.5134 7.4922 13.5356C7.71682 13.887 7.95729 14.1761 8.20351 14.4385H11.0819C10.5938 13.8855 10.0797 13.1916 9.8234 12.4696C9.68661 12.0856 9.87668 11.6601 10.2511 11.5193C10.6283 11.3784 11.0372 11.5756 11.1755 11.9596C11.5211 12.9337 12.7018 14.0604 13.128 14.4118C13.1366 14.4192 13.1409 14.4311 13.1496 14.4385H13.7443C14.2295 13.2005 14.1302 12.2279 13.9171 11.5904Z" fill="#11162A"/>
</svg>
