<svg width="32" height="32" viewBox="0 0 32 32" fill="none" xmlns="http://www.w3.org/2000/svg">
<path d="M10.5581 11.7835L16.0329 9.45049L29.2378 15.0776L29.8836 13.5624L18.1336 8.55526L29.8836 3.5482L29.2378 2.03302L16.0329 7.66014L10.5581 5.32714L9.91235 6.84232L13.9322 8.55526L9.91235 10.2683L10.5581 11.7835Z" fill="#11162A"/>
<path d="M2 21.0526V25.0259C2 26.4456 2.75671 27.7241 4.1308 28.6259C5.29093 29.3874 6.82001 29.8367 8.58823 29.9423V23.3568C6.30843 23.2364 3.69894 22.5766 2 21.0526Z" fill="#11162A"/>
<path d="M10.2354 23.3568V29.9423C12.0036 29.8367 13.5327 29.3874 14.6928 28.6259C16.0669 27.7242 16.8236 26.4457 16.8236 25.0259V21.0526C15.1244 22.5768 12.5146 23.2364 10.2354 23.3568Z" fill="#11162A"/>
<path d="M14.4387 14.5483C11.6334 13.1456 7.1919 13.1449 4.38504 14.5483C1.21687 16.0673 1.2172 19.1611 4.38504 20.68C7.19042 22.0827 11.6319 22.0834 14.4387 20.68C17.6069 19.161 17.6065 16.0671 14.4387 14.5483ZM10.2354 18.4376H8.58833V16.7906H10.2354V18.4376Z" fill="#11162A"/>
<path d="M24.2354 23.3788C23.7812 23.3788 23.4119 23.7483 23.4119 24.2024C23.457 25.2949 25.0139 25.2946 25.0589 24.2024C25.0589 23.7483 24.6895 23.3788 24.2354 23.3788Z" fill="#11162A"/>
<path d="M26.7058 18.4376H21.7646C19.9482 18.4376 18.4705 19.9154 18.4705 21.7317V26.6729C18.4705 28.4893 19.9482 29.967 21.7646 29.967H26.7058C28.5221 29.967 29.9999 28.4893 29.9999 26.6729V21.7317C29.9999 19.9154 28.5221 18.4376 26.7058 18.4376ZM24.2352 26.6729C22.8728 26.6729 21.7646 25.5646 21.7646 24.2023C21.9002 20.9247 26.5706 20.9257 26.7058 24.2023C26.7058 25.5647 25.5975 26.6729 24.2352 26.6729Z" fill="#11162A"/>
</svg>
