<svg width="20" height="20" viewBox="0 0 20 20" fill="none" xmlns="http://www.w3.org/2000/svg">
<path d="M17.3333 14.6667H15.558C15.2693 13.706 14.3867 13 13.3333 13C12.28 13 11.398 13.706 11.1087 14.6667H2.66666C2.29866 14.6667 2 14.9654 2 15.3334C2 15.7014 2.29866 16 2.66666 16H11.1087C11.3973 16.9607 12.28 17.6667 13.3333 17.6667C14.3866 17.6667 15.2687 16.9607 15.558 16H17.3333C17.702 16 18 15.7014 18 15.3334C18 14.9654 17.702 14.6667 17.3333 14.6667ZM13.3333 16.3334C12.782 16.3334 12.3333 15.8847 12.3333 15.3334C12.3333 14.782 12.782 14.3334 13.3333 14.3334C13.8847 14.3334 14.3333 14.782 14.3333 15.3334C14.3333 15.8847 13.8847 16.3334 13.3333 16.3334Z" fill="white"/>
<path d="M17.3333 4.00003H15.558C15.2687 3.03937 14.3867 2.33337 13.3333 2.33337C12.28 2.33337 11.398 3.03937 11.1087 4.00003H2.66666C2.29866 4.00003 2 4.29869 2 4.66669C2 5.03469 2.29866 5.33334 2.66666 5.33334H11.1087C11.398 6.29403 12.28 7.00003 13.3333 7.00003C14.3867 7.00003 15.2687 6.29403 15.558 5.33337H17.3333C17.702 5.33337 18 5.03472 18 4.66672C18 4.29872 17.702 4.00003 17.3333 4.00003ZM13.3333 5.66669C12.782 5.66669 12.3333 5.21803 12.3333 4.66669C12.3333 4.11534 12.782 3.66669 13.3333 3.66669C13.8847 3.66669 14.3333 4.11534 14.3333 4.66669C14.3333 5.21803 13.8847 5.66669 13.3333 5.66669Z" fill="white"/>
<path d="M17.3333 9.33337H8.89134C8.602 8.37272 7.72 7.66672 6.66669 7.66672C5.61337 7.66672 4.73134 8.37272 4.44203 9.33337H2.66666C2.29866 9.33337 2 9.63203 2 10C2 10.368 2.29866 10.6667 2.66666 10.6667H4.442C4.73134 11.6273 5.61334 12.3333 6.66666 12.3333C7.71997 12.3333 8.602 11.6273 8.89131 10.6667H17.3333C17.702 10.6667 18 10.368 18 10C18 9.63203 17.702 9.33337 17.3333 9.33337ZM6.66666 11C6.11531 11 5.66666 10.5514 5.66666 10C5.66666 9.44869 6.11531 9.00003 6.66666 9.00003C7.218 9.00003 7.66666 9.44869 7.66666 10C7.66666 10.5514 7.218 11 6.66666 11Z" fill="white"/>
</svg>
