<svg width="32" height="32" viewBox="0 0 32 32" fill="none" xmlns="http://www.w3.org/2000/svg">
<path d="M28.9973 16.495V15.2291C28.9851 15.2492 28.9729 15.2689 28.9607 15.289C28.7373 15.6514 28.4848 15.9857 28.2015 16.2923C27.9494 16.5656 27.6735 16.817 27.3727 17.0468C26.1105 18.0113 24.4164 18.5955 22.2528 18.8183C20.5369 18.995 19.6307 19.1653 18.4593 19.7627C18.0168 19.9887 17.5833 20.2376 17.1244 20.5018C15.9852 21.1565 14.8074 21.8335 13.3515 22.2298C12.4389 22.4781 11.5349 22.6044 10.6653 22.6044C9.49433 22.6044 8.37913 22.3784 7.35035 21.9332C6.51631 21.5724 5.75282 21.0737 5.07636 20.4487C4.97607 20.3558 4.87791 20.2608 4.78188 20.1627C4.45505 19.8301 4.1558 19.4703 3.8863 19.0894C3.8863 19.0894 3.8863 19.0889 3.88579 19.0889C3.54571 18.6088 3.2523 18.0946 3.01088 17.554C2.88037 19.9957 3.93089 22.5291 5.77618 24.1383C7.13813 25.3262 8.82534 25.9358 10.6733 25.9358C11.4707 25.9358 12.2984 25.8223 13.1425 25.5926C14.4997 25.2233 15.6324 24.5718 16.7281 23.9425C17.1955 23.6735 17.6375 23.4194 18.098 23.1849C19.4865 22.4761 20.6123 22.3179 22.1711 22.1577C25.1662 21.8495 27.1653 20.817 28.2827 19.0025C28.7882 18.1816 29.0286 17.3381 28.9973 16.495Z" fill="#11162A"/>
<path d="M14.2842 6.06409C14.1908 6.06409 14.0985 6.06459 14.0051 6.06515C13.5377 6.06942 13.0692 6.09065 12.6034 6.1299C12.4532 6.3899 12.2882 6.67321 12.111 6.97668C10.4541 9.81358 7.71956 14.3796 5.77241 17.6192V17.6197C5.61803 17.876 5.46894 18.1238 5.32568 18.3614C5.33046 18.3683 5.33574 18.3747 5.34107 18.3816C5.34264 18.3832 5.34427 18.3853 5.34584 18.3869C5.3591 18.4044 5.37291 18.4224 5.38616 18.4399C5.39998 18.458 5.4143 18.4755 5.42806 18.493C5.43918 18.5073 5.45035 18.5217 5.46203 18.5355C5.48539 18.5647 5.5087 18.5927 5.53262 18.6214C5.54323 18.6347 5.55435 18.6479 5.56603 18.6607C5.59574 18.6967 5.62707 18.7329 5.65886 18.7684C5.65993 18.77 5.66099 18.771 5.66206 18.7727C5.66577 18.7774 5.67003 18.7822 5.67425 18.7865C5.67475 18.787 5.67531 18.7875 5.67582 18.7881C5.70289 18.8188 5.73046 18.8491 5.75859 18.8793C5.7591 18.8798 5.75966 18.8809 5.76017 18.8814C5.76281 18.8846 5.76545 18.8873 5.76865 18.8905C5.77926 18.9027 5.79038 18.9143 5.80156 18.9265C5.80313 18.9281 5.80475 18.9292 5.80582 18.9308C5.84243 18.9701 5.87956 19.0088 5.91723 19.0475C5.95334 19.0842 5.9899 19.1208 6.02707 19.1568C6.03505 19.1648 6.04353 19.1727 6.05201 19.1807C6.08121 19.2088 6.11036 19.2364 6.14006 19.264C6.15916 19.2815 6.17774 19.299 6.19684 19.3165C6.23558 19.3515 6.27428 19.386 6.31358 19.4199C6.35974 19.4597 6.4059 19.499 6.45313 19.5377C6.477 19.5573 6.50036 19.5764 6.52422 19.595C6.59583 19.6523 6.66854 19.708 6.74284 19.7621C6.75609 19.7716 6.76884 19.7812 6.78209 19.7907C6.79377 19.7992 6.80545 19.8072 6.81764 19.8157C6.86751 19.8512 6.91793 19.8862 6.96937 19.9202C6.99486 19.9371 7.02031 19.9541 7.04631 19.9711C7.05265 19.9754 7.05905 19.9791 7.06596 19.9839C7.11054 20.0125 7.15508 20.0406 7.20017 20.0677C7.22724 20.0841 7.25481 20.1006 7.28295 20.1171C7.30946 20.1324 7.33652 20.1483 7.36359 20.1637C7.41716 20.194 7.4718 20.2242 7.527 20.2534C7.64375 20.0613 7.78274 19.8321 7.94138 19.5722C9.59355 16.8557 13.3287 10.7043 15.5937 6.88959C15.7539 6.62004 15.9067 6.36167 16.0505 6.11761C15.4605 6.08161 14.8705 6.06409 14.2842 6.06409Z" fill="#11162A"/>
<path d="M4.44714 10.706C4.30231 11.0599 4.15372 11.4021 4.04073 11.7672C3.92774 12.1317 3.85132 12.5184 3.85132 12.9614V14.6608V14.7096C3.8566 14.7537 3.86244 14.7977 3.86884 14.8418C3.87254 14.8667 3.87625 14.8916 3.87996 14.9166C3.88367 14.9431 3.88793 14.9696 3.89215 14.9956C3.89428 15.0068 3.89585 15.0179 3.89743 15.0285C3.90433 15.0684 3.91124 15.1081 3.91865 15.1474C3.91972 15.1553 3.92129 15.1633 3.92292 15.1712C3.92927 15.2041 3.93567 15.2376 3.94201 15.2705C3.94679 15.2928 3.95105 15.315 3.95583 15.3373C3.9606 15.359 3.96537 15.3813 3.97015 15.4031C3.97065 15.4063 3.97121 15.4089 3.97228 15.4121C3.97756 15.4371 3.9834 15.462 3.98924 15.4864C4.00036 15.5342 4.01153 15.582 4.02372 15.6297C4.02849 15.6493 4.03378 15.6689 4.03911 15.6886C4.04708 15.7209 4.05607 15.7533 4.0646 15.7857C4.07095 15.8085 4.07735 15.8313 4.08425 15.8541C4.09593 15.896 4.10812 15.938 4.12087 15.9804C4.12193 15.9831 4.12244 15.9857 4.12351 15.9889C4.13996 16.043 4.15692 16.0977 4.17495 16.1518C4.18876 16.1943 4.20308 16.2372 4.21791 16.2797C4.23279 16.3221 4.24817 16.3646 4.26351 16.407C4.26351 16.4081 4.26402 16.4092 4.26458 16.4102C4.26564 16.4129 4.26671 16.4155 4.26778 16.4182C4.27783 16.4464 4.28844 16.4739 4.29906 16.5015C4.30063 16.5058 4.30226 16.5105 4.30383 16.5148C4.30967 16.5301 4.31551 16.5455 4.32186 16.5604C4.33247 16.5874 4.34253 16.6145 4.3537 16.641C4.35476 16.6442 4.35634 16.6473 4.3574 16.6505C4.3606 16.6585 4.36375 16.667 4.36751 16.675C4.37548 16.6941 4.3829 16.7126 4.39087 16.7312C4.39828 16.7498 4.40626 16.7689 4.41474 16.788C4.58292 16.5084 4.75695 16.2186 4.93519 15.9215C6.55238 13.2289 8.54991 9.89064 10.0366 7.36727C10.2318 7.03617 10.4181 6.71894 10.5937 6.41913C7.82044 7.00007 5.4165 8.33495 4.44714 10.706Z" fill="#11162A"/>
<path d="M20.7247 6.82447C20.5353 6.77724 20.3448 6.73164 20.1533 6.68863C19.9745 6.64831 19.7946 6.61012 19.6142 6.57401C19.2439 6.49972 18.8709 6.43447 18.4963 6.37663C18.3987 6.36175 18.3011 6.34743 18.2035 6.33366C18.0698 6.31508 17.9361 6.29705 17.8019 6.28009H17.8014C17.6655 6.51247 17.518 6.76292 17.361 7.02871C15.2276 10.6403 11.321 17.0776 9.48104 20.1044C9.31712 20.3729 9.17015 20.6148 9.04224 20.8255C9.07672 20.8334 9.1112 20.8419 9.14624 20.8493C9.21413 20.8647 9.28258 20.8785 9.35155 20.8918C9.38867 20.8987 9.42584 20.9056 9.46352 20.912C9.48525 20.9157 9.50704 20.9194 9.52877 20.9226C9.56168 20.9284 9.59509 20.9332 9.628 20.938C9.65451 20.9422 9.68107 20.9459 9.70757 20.9491C9.72667 20.9517 9.74525 20.9544 9.76379 20.9565C9.79984 20.9613 9.83595 20.9655 9.872 20.9692C9.88952 20.9714 9.90755 20.9735 9.92558 20.9751C9.96432 20.9793 10.003 20.9831 10.0418 20.9862C10.0736 20.9888 10.1054 20.9915 10.1373 20.9936C10.1776 20.9968 10.2179 20.9995 10.2582 21.0016C10.2827 21.0027 10.3065 21.0042 10.3309 21.0053C10.3707 21.0069 10.411 21.0085 10.4519 21.0096C10.4763 21.0106 10.5007 21.0111 10.5256 21.0111C10.5718 21.0122 10.6184 21.0127 10.6652 21.0127C10.7134 21.0127 10.7617 21.0122 10.8105 21.0111H10.8254C10.8424 21.0106 10.8594 21.0101 10.8769 21.0096C10.8806 21.0096 10.8848 21.0091 10.8891 21.0091C10.9156 21.0085 10.9421 21.008 10.9692 21.0064C10.9883 21.0059 11.0079 21.0053 11.0275 21.0038C11.0562 21.0027 11.0854 21.0016 11.1145 20.9995C11.1448 20.9979 11.1756 20.9958 11.2058 20.9937C11.2514 20.9905 11.2976 20.9868 11.3437 20.9831C11.436 20.9751 11.5288 20.965 11.6228 20.9539C11.6663 20.9486 11.7103 20.9427 11.7544 20.9363C11.7639 20.9353 11.773 20.9337 11.7825 20.9326C11.791 20.9316 11.799 20.9305 11.8074 20.9289C11.844 20.9236 11.8807 20.9183 11.9178 20.9125C11.9549 20.9066 11.9921 20.9003 12.0298 20.8939C12.0605 20.8886 12.0913 20.8833 12.1226 20.8774C12.1799 20.8674 12.2372 20.8568 12.295 20.8451C12.3327 20.8371 12.3704 20.8297 12.4086 20.8212C12.4181 20.8191 12.4272 20.8175 12.4362 20.8154C12.4399 20.8149 12.4431 20.8138 12.4468 20.8132C12.4494 20.8127 12.452 20.8122 12.4547 20.8117V20.8112L12.4946 20.7496C12.6219 20.5416 12.814 20.227 13.058 19.827C14.577 17.3381 18.1053 11.5465 20.4732 7.58375C20.6196 7.33812 20.7618 7.09985 20.8987 6.86961C20.8409 6.85417 20.783 6.83934 20.7247 6.82447Z" fill="#11162A"/>
<path d="M25.0288 8.46277C24.9258 8.40706 24.8229 8.35293 24.7184 8.29935C24.6144 8.24629 24.5094 8.19378 24.4038 8.14285C24.2982 8.0914 24.1921 8.04149 24.0849 7.99218C23.5618 7.75234 23.0216 7.53642 22.4683 7.34436C22.3346 7.56932 22.1956 7.80327 22.0513 8.04469C20.1911 11.1639 17.5096 15.5792 15.6861 18.5742C15.3842 19.0703 15.1057 19.5272 14.8584 19.9325C14.929 19.8969 14.999 19.8609 15.069 19.8243C15.1152 19.7998 15.1614 19.776 15.207 19.7516C15.2102 19.75 15.2139 19.7479 15.2171 19.7463C15.2654 19.7203 15.3137 19.6949 15.3614 19.6683C15.4097 19.6423 15.458 19.6163 15.5057 19.5898C15.6012 19.5367 15.6967 19.4837 15.7917 19.4301C15.8421 19.4015 15.8925 19.3728 15.9429 19.3441C16.153 19.2242 16.362 19.1038 16.5721 18.9833C16.657 18.935 16.7424 18.8862 16.8278 18.8379C16.935 18.7775 17.0422 18.717 17.1499 18.6576C17.1892 18.6358 17.2284 18.6141 17.2682 18.5923C17.2852 18.5833 17.3022 18.5737 17.3192 18.5647C17.36 18.543 17.4009 18.5207 17.4417 18.4989C17.5393 18.4469 17.6375 18.3955 17.7362 18.3451C17.7988 18.3132 17.8608 18.2825 17.9224 18.2527C17.9627 18.2331 18.0025 18.214 18.0418 18.1955C18.0922 18.1716 18.1426 18.1488 18.1924 18.1265C18.2391 18.1053 18.2858 18.0846 18.3325 18.065C18.3675 18.0496 18.402 18.0352 18.437 18.0209C18.4646 18.0092 18.4916 17.9981 18.5192 17.9875C18.5224 17.9859 18.5251 17.9849 18.5283 17.9838C18.5803 17.9631 18.6317 17.9424 18.6832 17.9233C18.7214 17.9084 18.7596 17.8941 18.7978 17.8804C18.8413 17.8645 18.8843 17.8491 18.9272 17.8342C18.975 17.8178 19.0233 17.8019 19.071 17.7859C19.1246 17.7684 19.1787 17.7514 19.2329 17.735C19.2541 17.7286 19.2753 17.7222 19.296 17.7159C19.3172 17.7095 19.3384 17.7031 19.3597 17.6973C19.3931 17.6872 19.4265 17.6776 19.4599 17.6687C19.4939 17.6591 19.5273 17.6501 19.5613 17.6416C19.5677 17.6395 19.5741 17.6379 19.5799 17.6368C19.5889 17.6347 19.5974 17.632 19.6064 17.6299C19.6372 17.6214 19.6685 17.6135 19.6998 17.606C19.7385 17.5965 19.7778 17.587 19.817 17.5779C19.8192 17.5774 19.8207 17.5768 19.8229 17.5763C19.8282 17.5753 19.834 17.5737 19.8393 17.5726L19.929 17.4214C20.0707 17.1858 20.2261 16.9269 20.3933 16.6494C21.5647 14.7001 23.297 11.8128 24.8161 9.25338C24.9535 9.02207 25.0887 8.7934 25.2219 8.56895C25.1577 8.5328 25.0935 8.49776 25.0288 8.46277Z" fill="#11162A"/>
<path d="M26.5444 9.45868C26.4092 9.68684 26.2718 9.91866 26.1327 10.1532C24.8837 12.2563 23.4985 14.5696 22.4013 16.3979C22.2209 16.6982 22.0479 16.9857 21.885 17.2568C21.9524 17.2494 22.0208 17.242 22.0898 17.2351C24.4105 16.9963 26.4754 16.2886 27.605 14.4544C27.9907 13.8284 28.1775 13.2198 28.2014 12.6378V12.6213V12.3799C28.1552 11.2721 27.5191 10.2725 26.5444 9.45868Z" fill="#11162A"/>
<path d="M14.7441 19.9892C14.7823 19.9706 14.8205 19.9521 14.8582 19.933V19.9325C14.8205 19.9515 14.7823 19.9706 14.7441 19.9892Z" fill="#11162A"/>
</svg>
