<svg width="32" height="32" viewBox="0 0 32 32" fill="none" xmlns="http://www.w3.org/2000/svg">
<path d="M27.2257 19.6101C27.2255 19.6101 27.2254 19.6101 27.2252 19.6101C27.0326 19.6101 26.8298 19.5977 26.6171 19.5752C26.5659 19.5698 26.4597 19.5653 26.4099 19.651C25.6986 20.9823 24.5032 21.7723 23.083 21.7723H8.91732C7.49712 21.7723 6.2887 20.9591 5.57715 19.6278C5.53829 19.5639 5.4593 19.5671 5.41992 19.5714C5.19403 19.5963 4.97862 19.6102 4.77502 19.6102C4.64291 19.6102 4.51733 19.6039 4.39785 19.5921C4.26618 19.579 4.10791 19.594 4.10791 19.6869C4.65004 21.8513 6.24552 23.2756 8.23341 23.2756H23.7671C25.755 23.2756 27.3954 21.842 27.9377 19.6779C27.9599 19.5573 27.846 19.5598 27.7785 19.57C27.6057 19.5961 27.4219 19.61 27.2257 19.6101Z" fill="#11162A"/>
<path d="M7.72633 10.6753C7.66057 10.5612 7.55313 10.6142 7.49064 10.6472C4.74008 12.0921 3 14.2249 3 16.6043C3 19.6502 5.85132 18.4328 10.0239 17.4275C10.084 17.413 10.1854 17.3431 10.1385 17.2036L7.72633 10.6753Z" fill="#11162A"/>
<path d="M17.0457 8.89096V16.5258C17.0457 16.628 17.1162 16.6386 17.1518 16.6408C18.7644 16.7401 20.2924 17.0317 21.682 17.3575C21.7455 17.3724 21.8701 17.3928 21.9245 17.2869L24.8146 10.9943C24.8734 10.8847 24.7846 10.7958 24.7359 10.769C22.7101 9.65407 20.1018 8.9212 17.22 8.75862C17.1619 8.75535 17.0457 8.75855 17.0457 8.89096Z" fill="#11162A"/>
<path d="M16.0796 8.87239C16.0796 8.74957 15.9296 8.72416 15.8945 8.7243C13.2414 8.73709 10.7784 9.23196 8.73028 10.071C8.67292 10.0945 8.57543 10.1712 8.61778 10.301L11.1147 17.0587C11.1668 17.1729 11.282 17.1436 11.3311 17.1333C12.7613 16.8359 14.3335 16.6078 15.9558 16.5996C15.9863 16.5994 16.0797 16.6 16.0797 16.5165L16.0796 8.87239Z" fill="#11162A"/>
<path d="M25.6263 11.5406C24.8352 13.0198 22.8601 17.5595 22.8601 17.5595C22.8297 17.6278 22.9014 17.6575 22.939 17.6672C26.5813 18.5981 29 19.4095 29 16.6041C29 14.6416 27.8158 12.8472 25.8584 11.4678C25.8086 11.4331 25.6874 11.4266 25.6263 11.5406Z" fill="#11162A"/>
</svg>
